<?xml version="1.0" encoding="UTF-8" standalone="no"?>
<!-- Created with Inkscape (http://www.inkscape.org/) -->

<svg
   xmlns:dc="http://purl.org/dc/elements/1.1/"
   xmlns:cc="http://creativecommons.org/ns#"
   xmlns:rdf="http://www.w3.org/1999/02/22-rdf-syntax-ns#"
   xmlns:svg="http://www.w3.org/2000/svg"
   xmlns="http://www.w3.org/2000/svg"
   xmlns:sodipodi="http://sodipodi.sourceforge.net/DTD/sodipodi-0.dtd"
   xmlns:inkscape="http://www.inkscape.org/namespaces/inkscape"
   version="1.1"
   id="svg1275"
   xml:space="preserve"
   width="793.70135"
   height="1122.52"
   viewBox="0 0 793.70135 1122.52"
   sodipodi:docname="Helical Rails Axes and Variables - Rotated 2019.svg"
   inkscape:version="0.92.3 (2405546, 2018-03-11)"><metadata
     id="metadata1281"><rdf:RDF><cc:Work
         rdf:about=""><dc:format>image/svg+xml</dc:format><dc:type
           rdf:resource="http://purl.org/dc/dcmitype/StillImage" /><dc:title /></cc:Work></rdf:RDF></metadata><defs
     id="defs1279" /><sodipodi:namedview
     pagecolor="#ffffff"
     bordercolor="#666666"
     borderopacity="1"
     objecttolerance="10"
     gridtolerance="10"
     guidetolerance="10"
     inkscape:pageopacity="0"
     inkscape:pageshadow="2"
     inkscape:window-width="1600"
     inkscape:window-height="837"
     id="namedview1277"
     showgrid="false"
     inkscape:zoom="4.7572162"
     inkscape:cx="501.36513"
     inkscape:cy="567.59233"
     inkscape:window-x="-8"
     inkscape:window-y="-8"
     inkscape:window-maximized="1"
     inkscape:current-layer="g1283" /><g
     id="g1283"
     inkscape:groupmode="layer"
     inkscape:label="Helical Rails Axes and Variables - Rotated 2019"
     transform="matrix(1.3333333,0,0,-1.3333333,0,1122.52)"><path
   inkscape:connector-curvature="0"
   id="path1515"
   style="fill:none;stroke:#000000;stroke-width:0.70899999;stroke-linecap:butt;stroke-linejoin:miter;stroke-miterlimit:10;stroke-dasharray:none;stroke-opacity:1"
   d="m 431.3,397.6 -1.4,-1.3 -1.4,-1.3 -1.5,-1.3 -1.5,-1.2 -1.5,-1.3 -1.6,-1.2 -1.7,-1.2 -1.7,-1.2 -1.8,-1.2 -1.8,-1.1 -1.8,-1.1 -1.9,-1.1 -1.9,-1.1 -2,-1.1 -2,-1.1 -2,-1 -2.1,-1 -2.2,-1 -2.1,-0.9 -2.2,-1 -2.3,-0.9 -2.3,-0.9 -2.3,-0.9 -2.3,-0.8 -2.4,-0.8 -2.4,-0.8 -2.5,-0.8 -2.4,-0.7 -2.5,-0.8 -2.6,-0.7 -2.5,-0.6 -2.6,-0.7 -2.6,-0.6 -2.6,-0.6 -2.7,-0.5 -2.7,-0.5 -2.6,-0.5 -2.8,-0.5 -2.7,-0.5 -2.7,-0.4 -2.8,-0.4 -2.8,-0.3 -2.8,-0.4 -2.8,-0.3 -2.8,-0.2 -2.8,-0.3 -2.8,-0.2 -2.9,-0.2 -2.8,-0.1 -2.9,-0.2 -2.8,-0.1 h -2.9 l -2.9,-0.1 h -2.8 l -2.9,0.1 h -2.9 l -2.8,0.1 -2.9,0.1 -2.8,0.2 -2.9,0.1 -2.8,0.2 -2.8,0.3 -2.9,0.2 -2.8,0.3 -2.8,0.3 -2.7,0.4 -2.8,0.4 -2.8,0.4 -2.7,0.4 -2.7,0.5 -2.7,0.4 -2.7,0.6 -2.7,0.5 -2.6,0.6 -2.6,0.6 -2.6,0.6 -2.6,0.7 -2.5,0.7 -2.5,0.7 -2.5,0.7 -2.5,0.8 -2.4,0.7 -2.4,0.9 -2.3,0.8 -2.4,0.9 -2.3,0.8 -2.2,0.9 -2.2,1 -2.2,0.9 -2.2,1 -2.1,1 -2,1 -2.1,1.1 -2,1 -1.9,1.1 m 63.1,156.8 0.1,0.2 v 0.3 l 0.1,0.3 v 0.3 l 0.1,0.2 0.1,0.2 0.1,0.1 0.1,0.1 h 0.1 V 541 l 0.1,-0.1 v -0.1 -0.2 -0.2 -0.3 -0.2 -0.3 l -0.1,-0.3 V 539 l -0.1,-0.2 -0.1,-0.2 -0.1,-0.2 -0.1,-0.1 h -0.1 l -0.1,0.1 v 0.1 l -0.1,0.1 v 0.3 0.2 0.3" /><text
   transform="matrix(0.9983,0,0,-1,304.41542,406.3281)"
   style="font-variant:normal;font-weight:normal;font-stretch:normal;font-size:18px;font-family:'Century Gothic';-inkscape-font-specification:CenturyGothic;writing-mode:lr-tb;fill:#000000;fill-opacity:1;fill-rule:nonzero;stroke:none;"
   id="text1287"><tspan
     x="0 11.769957"
     y="0"
     sodipodi:role="line"
     id="tspan1285">θ </tspan></text>

<text
   transform="matrix(0.999025,0,0,-1,357.50104,438.4761)"
   style="font-variant:normal;font-weight:normal;font-stretch:normal;font-size:18px;font-family:'Century Gothic';-inkscape-font-specification:CenturyGothic;writing-mode:lr-tb;fill:#000016;fill-opacity:1;fill-rule:nonzero;stroke:none;"
   id="text1291"><tspan
     x="0 5.4127173"
     y="0"
     sodipodi:role="line"
     id="tspan1289">r </tspan></text>

<text
   transform="scale(1.0004999,-0.99950037)"
   style="font-variant:normal;font-weight:900;font-stretch:normal;font-size:24.01199722px;font-family:'Arial Black';-inkscape-font-specification:Arial-Black;writing-mode:lr-tb;fill:#000000;fill-opacity:1;fill-rule:nonzero;stroke:none;stroke-width:1.00049984"
   id="text1295"
   x="350.70392"
   y="-387.73499"><tspan
     x="350.70392"
     y="-387.73499"
     id="tspan1293"
     style="stroke-width:1.00049984">t</tspan></text>

<text
   transform="matrix(1.000001,0,0,-1,293.7532,465.1733)"
   style="font-variant:normal;font-weight:normal;font-stretch:normal;font-size:18px;font-family:'Century Gothic';-inkscape-font-specification:CenturyGothic;writing-mode:lr-tb;fill:#000000;fill-opacity:1;fill-rule:nonzero;stroke:none"
   id="text1307"><tspan
     x="0"
     y="0"
     id="tspan1305">z</tspan></text>

<text
   transform="matrix(1.000208,0,0,-1,318.0532,455.1473)"
   style="font-variant:normal;font-weight:normal;font-stretch:normal;font-size:18px;font-family:'Century Gothic';-inkscape-font-specification:CenturyGothic;writing-mode:lr-tb;fill:#000000;fill-opacity:1;fill-rule:nonzero;stroke:none"
   id="text1311"><tspan
     x="0"
     y="0"
     id="tspan1309">y</tspan></text>

<text
   transform="matrix(1.001158,0,0,-1,272.7292,445.2293)"
   style="font-variant:normal;font-weight:normal;font-stretch:normal;font-size:18px;font-family:'Century Gothic';-inkscape-font-specification:CenturyGothic;writing-mode:lr-tb;fill:#000000;fill-opacity:1;fill-rule:nonzero;stroke:none"
   id="text1315"><tspan
     x="0"
     y="0"
     id="tspan1313">x</tspan></text>



<text
   transform="matrix(1.000182,0,0,-1,300.4685,331.0208)"
   style="font-variant:normal;font-weight:900;font-stretch:normal;font-size:24px;font-family:'Arial Black';-inkscape-font-specification:Arial-Black;writing-mode:lr-tb;fill:#000000;fill-opacity:1;fill-rule:nonzero;stroke:none"
   id="text1327"><tspan
     x="0"
     y="0"
     id="tspan1325">s</tspan></text>


<path
   inkscape:connector-curvature="0"
   id="path1503"
   style="fill:none;stroke:#000000;stroke-width:0.50999999;stroke-linecap:butt;stroke-linejoin:miter;stroke-miterlimit:10;stroke-dasharray:none;stroke-opacity:1"
   d="m 279.1,419.1 8.4,-2.9 -1.4,-0.9 -7,3.8 m 58.9,3.8 -5,-4.5 -1.8,0.6 6.8,3.9 m -58.9,-3.8 1,-0.6 1,-0.5 1.1,-0.5 1.2,-0.5 1.2,-0.5 1.2,-0.4 1.2,-0.4 1.3,-0.4 1.3,-0.3 1.3,-0.4 1.4,-0.3 1.4,-0.2 1.4,-0.3 1.4,-0.2 1.4,-0.2 1.5,-0.1 m 21.7,1.4 1.3,0.3 1.3,0.4 1.3,0.4 1.3,0.4 1.2,0.4 1.1,0.5 1.2,0.5 1.1,0.5 1,0.5 1,0.6 1,0.6 0.9,0.6 0.9,0.6 0.8,0.6 0.8,0.7 0.7,0.6"
   sodipodi:nodetypes="cccccccccccccccccccccccccccccccccccccccccc" /><path
   sodipodi:nodetypes="ccccccccccccccccccccccccccccccccccccccccccccccccccccccccccccccccccccccccccccccccccccccccccccccccccccccccccccccccccccccccccccccccccccccccccccccccccccccccccccccccccccccccccccccccccccccccccccccccccccccccccccccccccccccccccccccccccccccccccccccccccccccccccccccccccccccccccccccccccccccccccccccccccccccccccccccccccccccccccccccccccccccccccccccccccccccccccccccccccccccccccccccccccccccccccccccccccccccccccccccccccccccccccccccccccccccccccccccccccccccccccccccccccccccccccccccccccccccccccccccccccccccccccccccccccccccccccccccccccccccccccccc"
   inkscape:connector-curvature="0"
   id="path1579"
   style="fill:none;stroke:#000000;stroke-width:0.70899999;stroke-linecap:round;stroke-linejoin:round;stroke-miterlimit:10;stroke-dasharray:none;stroke-opacity:1"
   d="m 430.4,544.5 -2.7,-1.6 -2.4,-1.4 -2.3,-1.1 -2,-0.9 -2.2,-0.9 -2.1,-0.9 -2.2,-0.8 -6.4,-2.1 -6.8,-1.9 -6.7,-1.5 -6.9,-1.3 -7.3,-1 -7.2,-0.8 -6.9,-0.6 -6.3,-0.3 -7.1,-0.1 -7.4,0.1 -7.5,0.2 -7.4,0.4 -7.3,0.7 -4.3,0.5 -4.3,0.5 -4.2,0.6 -4.2,0.6 -4.8,0.9 -5.7,1.1 -6.6,1.4 -7.4,1.8 -8.2,2.2 -8.9,2.8 m -0.5,-2.8 6.3,-2 5.4,-1.5 4.6,-1.3 3.8,-0.9 3,-0.7 3,-0.7 3,-0.7 3.1,-0.6 9.9,-1.8 9.9,-1.4 11.2,-1.2 11,-0.7 10.3,-0.3 9.8,0.1 6.6,0.3 6.9,0.4 7.1,0.8 6.8,0.9 6.3,1.1 6,1.2 4.2,1 4.2,1.1 4.1,1.3 4,1.3 4,1.5 4.3,1.9 4.6,2.2 4.5,2.6 m -1.7,-143.5 -5.5,-3.1 -5.9,-2.7 -6.2,-2.4 -6.3,-2 -6.4,-1.6 -6.2,-1.4 -6,-1.1 -5.8,-0.9 -9.7,-1.1 -10.1,-0.7 -10.3,-0.2 -10.4,0.2 -10.4,0.5 -10.6,1 -11,1.4 -11.1,2 -11.2,2.3 -11.1,2.9 -7.6,2.2 -7,2.3 -6.6,2.4 -6,2.3 -5.5,2.4 -4.9,2.2 -5,2.4 -4.1,2.1 -4.4,2.5 -4.9,2.8 -5.2,3.3 -5.5,3.7 -3.5,2.5 -3.4,2.7 -2.9,2.3 -2.4,2.1 -2,1.9 -1.6,1.5 -1.3,1.2 -1.3,1.3 -1.8,1.9 -2.3,2.5 -2.6,3.1 -2.5,3.1 -2.2,3 -2.3,3.5 -1.9,3.1 -1.5,2.7 -1.6,3.1 -1.2,2.8 -1,2.5 -0.8,2.2 -0.8,2.2 -0.8,2.9 -0.8,3.4 -0.7,3.6 -0.4,3.9 -0.3,4 v 3.2 l 0.1,2.7 0.3,2.7 0.3,2.9 0.6,3 0.9,4 1.2,4 1.6,4.5 2.2,4.9 2.6,4.9 2.8,4.7 3.2,4.4 3.1,4 3.2,3.7 3.3,3.5 4.2,4.1 5,4.4 5.1,4 5,3.7 4.8,3.2 6.1,3.8 6.8,3.9 7.7,3.9 8.5,3.9 9.3,3.8 9.3,3.4 11.3,3.5 11.1,3 11,2.4 10.8,2 10.7,1.5 10.6,1.1 10.5,0.7 10.2,0.2 10.1,-0.1 9.9,-0.5 8.3,-0.8 8.1,-1 7.9,-1.4 5.8,-1.3 5.6,-1.4 5.4,-1.6 4.9,-1.7 5.6,-2.2 4.5,-2.2 3.7,-2 3.1,-1.9 3.1,-2.2 3,-2.6 2.1,-2.1 1.8,-2.2 1.5,-2.2 1.1,-2 0.8,-2 0.6,-2 0.3,-2.5 -0.1,-2.7 -0.1,-1.3 -0.3,-1 -0.2,-1 -0.4,-1.1 -0.6,-1.2 -0.6,-1.3 -0.7,-1.2 -0.6,-0.9 -0.7,-1 -0.9,-1.1 -1.2,-1.4 -1.6,-1.5 -2,-1.8 -2.6,-2 -3.2,-2.1 m -229.6,-119 2.9,-2.4 3.6,-2.6 6.9,-4.7 6.5,-4 6,-3.3 5.3,-2.8 5.1,-2.5 5.1,-2.3 5.6,-2.4 6.1,-2.4 6.6,-2.4 7.1,-2.3 7.6,-2.2 11.3,-2.9 11.4,-2.5 11.3,-1.9 11.1,-1.5 10.8,-1 10.5,-0.5 10.6,-0.2 10.4,0.3 10.2,0.6 9.9,1.1 6,1 6.1,1.1 6.3,1.4 6.4,1.7 6.5,2.1 6.4,2.4 6,2.8 m 5.7,149 3.4,2.3 2.7,2.1 2.1,1.9 1.7,1.7 1.2,1.4 1,1.2 0.7,1 0.8,1.1 0.7,1.3 0.7,1.5 0.6,1.4 0.5,1.2 0.3,1.2 0.2,1.2 0.3,1.4 v 4.2 l -0.7,3.4 -1.2,3 -1.7,3.1 -2.5,3.2 -2.9,3.1 -2.7,2.3 -2.8,2.1 -2.8,1.8 -2.9,1.7 -3.5,1.9 -4.2,1.9 -5,2 -5,1.7 -5.6,1.7 -5.7,1.4 -5.9,1.3 -8.1,1.4 -8.3,1.1 -8.4,0.8 -10,0.5 -10.2,0.1 -10.4,-0.3 -10.6,-0.7 -10.8,-1.1 -10.9,-1.5 -11,-2.1 -11.2,-2.4 -11.2,-3 -11.5,-3.6 -9.5,-3.5 -9.3,-3.9 -8.6,-4 -7.7,-3.9 -6.9,-3.9 -6.1,-3.9 -4.9,-3.2 -4.9,-3.7 -5.1,-4.1 -5,-4.4 -3.4,-3.2 -2.8,-2.9 -2.4,-2.6 -2.6,-3.1 -2.9,-3.7 -2.9,-4.1 -2.7,-4.3 -2.5,-4.4 -2.2,-4.6 -1.7,-4.3 -1.3,-3.9 -1,-3.6 -0.8,-3.6 -0.5,-2.9 -0.4,-2.8 -0.3,-2.5 -0.1,-2.5 v -2.8 l 0.1,-3.3 0.3,-3.5 0.5,-3.8 0.7,-3.5 0.8,-3.3 0.8,-2.8 0.7,-2.1 0.7,-1.9 0.8,-2.1 1,-2.3 1.2,-2.5 1.4,-2.8 1.9,-3.4 1.4,-2.2 1.6,-2.3 1.8,-2.6 2,-2.7 2.4,-2.9 2.3,-2.7 2.1,-2.3 1.7,-1.7 1.4,-1.5 1.2,-1.1 1.6,-1.5 2,-1.8 2.4,-2.1 1.9,-1.6 m 0.7,-45.1 2.3,-1.3 4.6,-2.4 4.7,-2.2 5,-2.2 5.1,-2 5.3,-1.9 5.5,-1.7 5.6,-1.7 5.7,-1.5 5.9,-1.4 5.9,-1.2 6.1,-1.1 6.2,-0.9 6.2,-0.9 6.3,-0.6 6.4,-0.5 6.4,-0.4 6.4,-0.2 6.4,-0.1 6.5,0.1 6.4,0.2 6.4,0.4 6.3,0.5 6.3,0.7 6.3,0.8 6.1,1 6.1,1.1 5.9,1.3 5.9,1.3 5.7,1.6 5.6,1.6 5.4,1.8 5.3,1.9 5.1,2 5,2.2 4.7,2.3 4.6,2.3 4.3,2.5 4.1,2.6 3.9,2.7 3.6,2.7 3.5,2.9 3.1,2.8 m -11.7,-6 -2.2,-1.6 -3.9,-2.5 -4.2,-2.5 -4.3,-2.4 -4.6,-2.2 -4.8,-2.2 -4.9,-2.1 -5.1,-1.9 -5.3,-1.8 -5.5,-1.7 -5.6,-1.6 -5.7,-1.4 -5.8,-1.3 -6,-1.1 -6,-1.1 -6.2,-0.8 -6.2,-0.8 -6.3,-0.6 -6.3,-0.4 -6.3,-0.3 -6.4,-0.1 h -6.4 l -6.3,0.1 -6.4,0.3 -6.3,0.5 -6.3,0.6 -6.2,0.7 -6.1,0.9 -6.1,1 -5.9,1.2 -5.9,1.3 -5.7,1.4 -5.6,1.6 -5.4,1.7 -5.3,1.8 -5.1,1.9 -5,2.1 -4.7,2.1 -4.6,2.3 -3.4,1.9 m 0,-0.1 v 40.8 m -2.8,2.3 v -43.9 m 64.8,174.1 5.5,-1.8 4.5,-1.4 3.5,-0.9 2.7,-0.7 2.6,-0.7 2.8,-0.7 6.6,-1.5 6.7,-1.4 10.1,-1.7 10.1,-1.3 10,-1 9.8,-0.6 9.8,-0.2 h 9.5 l 5.2,0.2 5.1,0.4 4.7,0.3 1.7,0.2 2,0.2 2.7,0.3 3.2,0.5 3.8,0.5 4.2,0.8 m -0.1,0.2 -4.6,-0.8 -3.9,-0.5 -3,-0.4 -2.3,-0.3 -2.4,-0.3 -2.4,-0.2 -6,-0.4 -6.1,-0.3 -9.4,-0.2 -9.7,0.2 -9.8,0.5 -10,0.9 -10,1.3 -10.1,1.6 -5.7,1.1 -5.6,1.2 -5.2,1.2 -1.9,0.5 -2.3,0.6 -3.1,0.8 -3.7,1 -4.4,1.3 -5,1.6 m 0.3,-15.7 h -0.1 l -0.2,-0.2 -0.1,-0.4 -0.2,-0.5 v -0.5 l -0.1,-0.5 0.1,-0.4 v -0.3 h 0.1 m 162.2,-145.1 0.4,0.2 1.5,0.8 2.9,2 1.3,1 m 0,0 -0.1,0.5 -0.2,0.5 -0.4,0.4 -0.5,0.2 h -0.5 l -0.4,-0.1 m -229.6,26.8 h -0.1 l -0.3,0.3 -0.3,0.4 -0.2,0.4 -0.1,0.1 m 0,0 v -0.1 h -0.1 l -0.2,-0.1 m 2.8,-43.1 v 0 h -0.1 -0.2 l -0.2,-0.2 -0.3,-0.1 -0.3,-0.2 -0.3,-0.1 -0.2,-0.1 -0.3,-0.2 -0.3,-0.2 -0.2,-0.2 h -0.1 m 0.4,-0.7 h -0.1 l -0.2,0.3 -0.1,0.4 m 232.5,14.4 0.1,0.3 0.1,0.4 m -233,-14.6 0.1,-0.2 0.2,-0.3 M 391,546.4 v 0 h 0.1 v -0.1 h 0.1 v -0.1 h -0.1 m -126.8,10.5 v 0 0.1 0.1 l 0.1,-0.1" /><g
   id="g1509"
   transform="translate(305.9,491.2)"><path
     d="M 0,0 1.1,-10 H -1 L 0,0 m -44.3,-47.5 10,-1.6 -0.6,-2.1 -9.4,3.7 m 76.4,19.2 -6.5,-7.8 -1.5,1.6 8,6.2 m 95.3,0.8 -9.5,-3.6 -0.6,2.1 10.1,1.5 m -169,93.1 9.9,-2 -0.6,-2 -9.3,4 M 85.3,55 75.4,52.5 75.1,54.6 85.3,55"
     style="fill:none;stroke:#000000;stroke-width:0.50999999;stroke-linecap:butt;stroke-linejoin:miter;stroke-miterlimit:10;stroke-dasharray:none;stroke-opacity:1"
     id="path1511"
     inkscape:connector-curvature="0" /></g><path
   inkscape:connector-curvature="0"
   id="path1519"
   style="fill:none;stroke:#000000;stroke-width:0.50999999;stroke-linecap:butt;stroke-linejoin:miter;stroke-miterlimit:10;stroke-dasharray:43.2, 3.60000000000000009, 3.60000000000000009, 3.60000000000000009;stroke-dashoffset:-0.384;stroke-opacity:1"
   d="m 445.1843,417.9769 0.649,1.882 0.553,1.889 0.456,1.897 0.361,1.902 0.263,1.906 0.166,1.909 0.07,1.911 -0.028,1.911 -0.125,1.91 -0.222,1.907 -0.319,1.904 -0.416,1.899 -0.512,1.893 -0.607,1.885 -0.704,1.876 -0.799,1.867 -0.893,1.854 -0.987,1.843 -1.081,1.828 -1.173,1.813 -1.264,1.796 -1.356,1.779 -1.446,1.76 -1.534,1.74 -1.623,1.719 -1.709,1.696 -1.795,1.673 -1.879,1.647 -1.963,1.622 -2.044,1.595 -2.124,1.567 -2.204,1.537 -2.28,1.508 -2.357,1.476 -2.431,1.444 -2.503,1.41 -2.574,1.376 -2.644,1.341 -2.71,1.306 -2.776,1.268 -2.84,1.23 -2.901,1.191 -2.96,1.152 -3.018,1.112 -3.074,1.07 -3.127,1.029 -3.178,0.986 -3.227,0.943 -3.274,0.9 -3.319,0.854 -3.361,0.81 -3.4,0.764 -3.439,0.718 -3.474,0.672 -3.507,0.624 -3.537,0.577 -3.565,0.529 -3.592,0.481 -3.614,0.432 -3.635,0.383 -3.653,0.334 -3.669,0.285 -3.682,0.235 -3.693,0.186 -3.701,0.135 -3.707,0.086 -3.71,0.036 -3.71,-0.015 -3.709,-0.064 -3.703,-0.114 -3.697,-0.164 -3.687,-0.214 -3.675,-0.264 -3.66,-0.313 -3.644,-0.363 -3.623,-0.411 -3.601,-0.46 -3.577,-0.508 -3.55,-0.557 -3.52,-0.604 -3.488,-0.652 -3.454,-0.698 -3.417,-0.744 -3.378,-0.791 -3.337,-0.835 -3.294,-0.881 -3.247,-0.924 -3.199,-0.968 -3.149,-1.011 -3.097,-1.052 -3.042,-1.095 -2.985,-1.134 -2.927,-1.175 -2.866,-1.214 -2.803,-1.252 -2.739,-1.289 -2.672,-1.326 -2.604,-1.361 -2.534,-1.397 -2.462,-1.429 -2.388,-1.463 -2.314,-1.494 -2.236,-1.525 -2.159,-1.554 -2.078,-1.583 -1.998,-1.61 -1.915,-1.637 -1.831,-1.662 -1.746,-1.687 -1.659,-1.709 -1.572,-1.731 -1.484,-1.751 -1.394,-1.771 -1.304,-1.79 -1.212,-1.806 -1.12,-1.822 -1.027,-1.836 -0.934,-1.849 -0.839,-1.862 -0.744,-1.872 -0.649,-1.882 -0.553,-1.889 -0.456,-1.897 -0.361,-1.902 -0.263,-1.906 -0.166,-1.909 -0.07,-1.911 0.028,-1.911 0.125,-1.91 0.222,-1.907 0.319,-1.904 0.416,-1.899 0.511,-1.893 0.608,-1.885 0.704,-1.877 0.799,-1.866 0.893,-1.855 0.987,-1.842 1.081,-1.828 1.173,-1.813 1.264,-1.797 1.356,-1.778 1.446,-1.76 1.534,-1.74 1.623,-1.719 1.709,-1.696 1.795,-1.673 1.879,-1.647 1.963,-1.622 2.044,-1.595 2.124,-1.567 2.204,-1.537 2.28,-1.508 2.357,-1.476 2.431,-1.444 2.503,-1.41 2.574,-1.377 2.644,-1.341 2.71,-1.305 2.776,-1.268 2.84,-1.23 2.901,-1.191 2.96,-1.152 3.018,-1.112 3.074,-1.07 3.127,-1.029 3.178,-0.986 3.227,-0.944 3.274,-0.899 3.319,-0.855 3.361,-0.809 3.4,-0.764 3.439,-0.718 3.474,-0.672 3.507,-0.624 3.537,-0.577 3.565,-0.529 3.592,-0.481 3.614,-0.432 3.635,-0.383 3.653,-0.334 3.669,-0.285 3.682,-0.235 3.693,-0.186 3.701,-0.136 3.707,-0.085 3.71,-0.036 3.71,0.014 3.709,0.065 3.703,0.114 3.697,0.164 3.687,0.214 3.675,0.264 3.66,0.313 3.644,0.362 3.623,0.412 3.601,0.46 3.577,0.508 3.55,0.557 3.52,0.604 3.488,0.651 3.454,0.699 3.417,0.744 3.378,0.79 3.337,0.836 3.294,0.88 3.247,0.925 3.199,0.968 3.149,1.01 3.097,1.053 3.042,1.094 2.985,1.135 2.927,1.175 2.866,1.214 2.803,1.252 2.739,1.289 2.672,1.326 2.604,1.361 2.534,1.396 2.462,1.43 2.388,1.462 2.314,1.495 2.236,1.524 2.159,1.555 2.078,1.583 1.998,1.61 1.915,1.637 1.831,1.662 1.746,1.687 1.659,1.709 1.572,1.731 1.484,1.751 1.394,1.771 1.304,1.789 1.212,1.807 1.12,1.821 1.027,1.837 0.934,1.849 0.839,1.862 0.744,1.872" /><path
   inkscape:connector-curvature="0"
   id="path1535"
   style="fill:none;stroke:#000000;stroke-width:0.50999999;stroke-linecap:round;stroke-linejoin:round;stroke-miterlimit:10;stroke-dasharray:none;stroke-opacity:1"
   d="m 305.9,431.6 46.6,11.7 m 63.7,16 -48.4,-12.1" /><g
   id="g1537"
   transform="translate(306.1,431.5)"><path
     d="m 0,0 v 0 m -10,2.7 v 0 M -0.3,0 v 0 m 96.4,24.1 v 0 m -126.5,97.6 v 0 m 98,-9.6 v 0"
     style="fill:none;stroke:#000000;stroke-width:0.50999999;stroke-linecap:round;stroke-linejoin:round;stroke-miterlimit:10;stroke-dasharray:none;stroke-opacity:1"
     id="path1539"
     inkscape:connector-curvature="0" /></g><path
   inkscape:connector-curvature="0"
   id="path1543"
   style="fill:none;stroke:#000000;stroke-width:0.50999999;stroke-linecap:round;stroke-linejoin:round;stroke-miterlimit:10;stroke-dasharray:none;stroke-opacity:1"
   d="m 306.1,431.5 -0.2,59.7 m -9.8,-57 -34.5,9.5 m 44.2,-12.2 32.2,31.4 m 64.2,-7.3 31.1,8.1 m -157.6,89.5 -11.4,3.6 m 109.4,-13.2 17.5,2.6"
   sodipodi:nodetypes="cccccccccccc" /><path
   inkscape:connector-curvature="0"
   id="path1547"
   style="fill:none;stroke:#000000;stroke-width:0.70899999;stroke-linecap:round;stroke-linejoin:round;stroke-miterlimit:10;stroke-dasharray:none;stroke-opacity:1"
   d="m 200.9,382.6 v 36.5 m 63.5,125.4 v 24.3" /><path
   inkscape:connector-curvature="0"
   id="path1571"
   style="fill:#000009;fill-opacity:1;fill-rule:nonzero;stroke:none"
   d="m 279.1,419.1 8.4,-2.9 -1.4,-0.9 m 51.9,7.6 -5,-4.5 -1.8,0.6"
   sodipodi:nodetypes="cccccc" /><path
   inkscape:connector-curvature="0"
   id="path1551"
   style="fill:none;stroke:#000000;stroke-width:0.50999999;stroke-linecap:round;stroke-linejoin:round;stroke-miterlimit:10;stroke-dasharray:43.2, 3.60000000000000009, 3.60000000000000009, 3.60000000000000009;stroke-dashoffset:10.65100002;stroke-opacity:1"
   d="m 305.9718,431.6803 -125.351,34.068" /><path
   inkscape:connector-curvature="0"
   id="path1555"
   style="fill:none;stroke:#000018;stroke-width:0.50999999;stroke-linecap:round;stroke-linejoin:round;stroke-miterlimit:10;stroke-dasharray:43.2, 3.60000000000000009, 3.60000000000000009, 3.60000000000000009;stroke-dashoffset:2.38499999;stroke-opacity:1"
   d="m 305.9718,431.6803 66.146,64.56" /><path
   inkscape:connector-curvature="0"
   id="path1559"
   style="fill:none;stroke:#000000;stroke-width:0.50999999;stroke-linecap:round;stroke-linejoin:round;stroke-miterlimit:10;stroke-dasharray:43.2, 3.60000000000000009, 3.60000000000000009, 3.60000000000000009;stroke-dashoffset:2.38499999;stroke-opacity:1"
   d="m 239.826,367.12 66.146,64.56" /><path
   inkscape:connector-curvature="0"
   id="path1563"
   style="fill:none;stroke:#000013;stroke-width:0.50999999;stroke-linecap:round;stroke-linejoin:round;stroke-miterlimit:10;stroke-dasharray:43.2, 3.60000000000000009, 3.60000000000000009, 3.60000000000000009;stroke-dashoffset:10.65100002;stroke-opacity:1"
   d="m 305.9718,431.6803 125.351,-34.068" /><path
   inkscape:connector-curvature="0"
   id="path1567"
   style="fill:none;stroke:#000000;stroke-width:0.50999999;stroke-linecap:round;stroke-linejoin:round;stroke-miterlimit:10;stroke-dasharray:43.2, 3.60000000000000009, 3.60000000000000009, 3.60000000000000009;stroke-dashoffset:17.64800072;stroke-opacity:1"
   d="m 305.9718,431.6803 -105.029,-49.015" /><g
   id="g1573"
   transform="translate(305.9,491.2)"><path
     d="M 0,0 1.1,-10 H -1 m -43.3,-37.5 10,-1.6 -0.6,-2.1 m 67,22.9 -6.5,-7.8 -1.5,1.6 m 103.3,7 -9.5,-3.6 -0.6,2.1 m -158.9,94.6 9.9,-2 -0.6,-2 M 85.3,55 75.4,52.5 75.1,54.6"
     style="fill:#000000;fill-opacity:1;fill-rule:nonzero;stroke:none"
     id="path1575"
     inkscape:connector-curvature="0" /></g></g></svg>