<?xml version="1.0" encoding="UTF-8" standalone="no"?>
<!-- Created with Inkscape (http://www.inkscape.org/) -->

<svg
   xmlns:ns0="http://www.iki.fi/pav/software/textext/"
   xmlns:dc="http://purl.org/dc/elements/1.1/"
   xmlns:cc="http://creativecommons.org/ns#"
   xmlns:rdf="http://www.w3.org/1999/02/22-rdf-syntax-ns#"
   xmlns:svg="http://www.w3.org/2000/svg"
   xmlns="http://www.w3.org/2000/svg"
   xmlns:sodipodi="http://sodipodi.sourceforge.net/DTD/sodipodi-0.dtd"
   xmlns:inkscape="http://www.inkscape.org/namespaces/inkscape"
   inkscape:version="0.92.3 (2405546, 2018-03-11)"
   sodipodi:docname="Straight-line Rails Axes and Variables 2019.svg"
   viewBox="0 0 793.70135 1122.52"
   height="1122.52"
   width="793.70135"
   xml:space="preserve"
   id="svg2"
   version="1.1"><sodipodi:namedview
     inkscape:current-layer="g10"
     inkscape:window-maximized="1"
     inkscape:window-y="-8"
     inkscape:window-x="-8"
     inkscape:cy="750.17883"
     inkscape:cx="482.15654"
     inkscape:zoom="2"
     showgrid="false"
     id="namedview4"
     inkscape:window-height="837"
     inkscape:window-width="1600"
     inkscape:pageshadow="2"
     inkscape:pageopacity="0"
     guidetolerance="10"
     gridtolerance="10"
     objecttolerance="10"
     borderopacity="1"
     bordercolor="#666666"
     pagecolor="#ffffff" /><metadata
     id="metadata8"><rdf:RDF><cc:Work
         rdf:about=""><dc:format>image/svg+xml</dc:format><dc:type
           rdf:resource="http://purl.org/dc/dcmitype/StillImage" /><dc:title /></cc:Work></rdf:RDF></metadata><defs
     id="defs6" /><g
     transform="matrix(1.3333333,0,0,-1.3333333,0,1122.52)"
     inkscape:label="Straight-line Rails Axes and Variables 2019"
     inkscape:groupmode="layer"
     id="g10"><text
   id="text14"
   style="font-variant:normal;font-weight:normal;font-stretch:normal;font-size:24px;font-family:'Century Gothic';-inkscape-font-specification:CenturyGothic;writing-mode:lr-tb;fill:#000000;fill-opacity:1;fill-rule:nonzero;stroke:none;"
   transform="matrix(0.99845,0,0,-1,293.3231,535.7887)"><tspan
     id="tspan12"
     sodipodi:role="line"
     y="0"
     x="0 15.695634">θ </tspan></text>



<text
   id="text18"
   style="font-variant:normal;font-weight:normal;font-stretch:normal;font-size:24px;font-family:'Century Gothic';-inkscape-font-specification:CenturyGothic;writing-mode:lr-tb;fill:#000000;fill-opacity:1;fill-rule:nonzero;stroke:none;"
   transform="matrix(1.001292,0,0,-1,261.9791,593.8687)"><tspan
     style="fill:#000000;fill-opacity:1;"
     id="tspan16"
     y="0"
     x="0">r</tspan></text>






<text
   id="text26"
   style="font-variant:normal;font-weight:900;font-stretch:normal;font-size:12.00600433px;font-family:'Arial Black';-inkscape-font-specification:Arial-Black;writing-mode:lr-tb;fill:#000000;fill-opacity:1;fill-rule:nonzero;stroke:none;stroke-width:0.96640897"
   transform="matrix(1.0005004,0,-0.26781599,-0.99949986,0,0)"
   x="286.14059"
   y="-557.20056"><tspan
     id="tspan24"
     y="-557.20056"
     x="286.14059"
     style="stroke-width:0.96640897">i</tspan></text>



<text
   id="text30"
   style="font-variant:normal;font-weight:900;font-stretch:normal;font-size:24px;font-family:'Arial Black';-inkscape-font-specification:Arial-Black;writing-mode:lr-tb;fill:#000000;fill-opacity:1;fill-rule:nonzero;stroke:none"
   transform="matrix(0.999501,0,0,-1,421.033,495.8826)"><tspan
     id="tspan28"
     y="0"
     x="0">c</tspan></text>



<text
   id="text34"
   style="font-variant:normal;font-weight:normal;font-stretch:normal;font-size:18px;font-family:'Century Gothic';-inkscape-font-specification:CenturyGothic;writing-mode:lr-tb;fill:#000000;fill-opacity:1;fill-rule:nonzero;stroke:none"
   transform="matrix(1.000001,0,0,-1,322.0594,740.5026)"><tspan
     id="tspan32"
     y="0"
     x="0">z</tspan></text>



<text
   id="text38"
   style="font-variant:normal;font-weight:normal;font-stretch:normal;font-size:13.22830009px;font-family:'Century Gothic';-inkscape-font-specification:CenturyGothic;writing-mode:lr-tb;fill:#000000;fill-opacity:1;fill-rule:nonzero;stroke:none"
   transform="matrix(1.00036,0,0,-1,140.5088,691.6593)"><tspan
     id="tspan36"
     sodipodi:role="line"
     y="0"
     x="0 8.0324688 17.07065 19.717262 22.363874">Rail </tspan></text>



<text
   id="text42"
   style="font-variant:normal;font-weight:normal;font-stretch:normal;font-size:13.22830009px;font-family:'Century Gothic';-inkscape-font-specification:CenturyGothic;writing-mode:lr-tb;fill:#000000;fill-opacity:1;fill-rule:nonzero;stroke:none"
   transform="matrix(0.999735,0,0,-1,140.5088,678.82785)"><tspan
     id="tspan40"
     sodipodi:role="line"
     y="0"
     x="0 5.1312203 13.727337 22.627623 35.032482 43.628597 51.695721">segment</tspan></text>



<text
   id="text46"
   style="font-variant:normal;font-weight:normal;font-stretch:normal;font-size:13.22830009px;font-family:'Century Gothic';-inkscape-font-specification:CenturyGothic;writing-mode:lr-tb;fill:#000000;fill-opacity:1;fill-rule:nonzero;stroke:none"
   transform="matrix(0.999921,0,0,-1,190.98799,740.52464)"><tspan
     id="tspan44"
     sodipodi:role="line"
     y="0"
     x="0 8.028944 16.071115 24.13974 33.041683 36.705631">Rung (</tspan></text>



<text
   id="text50"
   style="font-variant:normal;font-weight:normal;font-stretch:normal;font-size:13.69494057px;font-family:'Century Gothic';-inkscape-font-specification:CenturyGothic;writing-mode:lr-tb;fill:#000000;fill-opacity:1;fill-rule:nonzero;stroke:none"
   transform="matrix(0.96592412,0,-0.25881821,-0.96592605,232.5688,740.5341)"><tspan
     id="tspan48"
     y="0"
     x="0">i</tspan></text>



<text
   id="text54"
   style="font-variant:normal;font-weight:normal;font-stretch:normal;font-size:13.22830009px;font-family:'Century Gothic';-inkscape-font-specification:CenturyGothic;writing-mode:lr-tb;fill:#000000;fill-opacity:1;fill-rule:nonzero;stroke:none"
   transform="matrix(1.000109,0,0,-1,235.2145,740.5341)"><tspan
     id="tspan52"
     sodipodi:role="line"
     y="0"
     x="0 8.0172234 15.3465">+1)</tspan></text>



<text
   id="text58"
   style="font-variant:normal;font-weight:900;font-stretch:normal;font-size:24px;font-family:'Arial Black';-inkscape-font-specification:Arial-Black;writing-mode:lr-tb;fill:#000000;fill-opacity:1;fill-rule:nonzero;stroke:none"
   transform="matrix(0.999201,0,0,-1,365.2313,568.0504)"><tspan
     id="tspan56"
     y="0"
     x="0">z</tspan></text>



<text
   id="text62"
   style="font-variant:normal;font-weight:900;font-stretch:normal;font-size:12.42331696px;font-family:'Arial Black';-inkscape-font-specification:Arial-Black;writing-mode:lr-tb;fill:#000000;fill-opacity:1;fill-rule:nonzero;stroke:none"
   transform="matrix(0.96689252,0,-0.25881977,-0.96592563,378.5646,559.7504)"><tspan
     id="tspan60"
     y="0"
     x="0">i</tspan></text>



<text
   id="text66"
   style="font-variant:normal;font-weight:normal;font-stretch:normal;font-size:13.22830009px;font-family:'Century Gothic';-inkscape-font-specification:CenturyGothic;writing-mode:lr-tb;fill:#000000;fill-opacity:1;fill-rule:nonzero;stroke:none"
   transform="matrix(0.999921,0,0,-1,123.1317,595.0953)"><tspan
     id="tspan64"
     sodipodi:role="line"
     y="0"
     x="0 8.028944 16.071115 24.13974 33.041683 36.705631">Rung (</tspan></text>



<text
   id="text70"
   style="font-variant:normal;font-weight:normal;font-stretch:normal;font-size:13.69494057px;font-family:'Century Gothic';-inkscape-font-specification:CenturyGothic;writing-mode:lr-tb;fill:#000000;fill-opacity:1;fill-rule:nonzero;stroke:none"
   transform="matrix(0.96550104,0,-0.25881821,-0.96592605,164.7184,595.0953)"><tspan
     id="tspan68"
     sodipodi:role="line"
     y="0"
     x="0 2.737783">i)</tspan></text>



<path
   d="m 312.3,561 v 0 m -75.5,61.8 v 0 m 77.3,-59.6 -44.9,36.7 m -30.6,25.1 23.3,-19.1"
   style="fill:none;stroke:#000000;stroke-width:0.50999999;stroke-linecap:round;stroke-linejoin:round;stroke-miterlimit:10;stroke-dasharray:none;stroke-opacity:1"
   id="path282"
   inkscape:connector-curvature="0" /><path
   d="m 333.8,547.1 7,3.7 1.4,-0.8 -8.4,-2.9 m 13,7.2 -5,-4.5 -1.7,0.6 6.7,3.9 m -13,-7.2 1.2,0.4 1.2,0.5 1.2,0.4 1.1,0.5 1.1,0.5 1.1,0.6 1,0.5 1,0.6 0.9,0.6 0.9,0.7 0.8,0.6 0.8,0.7 0.7,0.6 m -31.2,-10.1 h 1.5 l 1.5,0.1 1.4,0.1 1.5,0.2 1.4,0.1 1.5,0.2 1.4,0.2 1.4,0.3 1.3,0.3 1.4,0.3 1.3,0.3 1.3,0.4 1.3,0.4 m -19.7,16.1 -8.5,5.5 1.4,1.7 7.1,-7.2 m -75.5,61.8 8.5,-5.6 -1.4,-1.6 -7.1,7.2"
   style="fill:none;stroke:#000000;stroke-width:0.50999999;stroke-linecap:butt;stroke-linejoin:miter;stroke-miterlimit:10;stroke-dasharray:none;stroke-opacity:1"
   id="path242"
   inkscape:connector-curvature="0" /><g
   transform="translate(323,695.1)"
   id="g252"><path
     inkscape:connector-curvature="0"
     id="path254"
     style="fill:none;stroke:#000006;stroke-width:0.70899999;stroke-linecap:butt;stroke-linejoin:miter;stroke-miterlimit:10;stroke-dasharray:none;stroke-opacity:1"
     d="m 0,0 -1.2,-0.2 -1.2,-0.1 -1.3,-0.2 -1.2,-0.1 h -1.3 l -1.3,-0.1 h -1.2 -1.3 -1.3 l -1.2,0.1 -1.3,0.1 -1.2,0.1 -1.3,0.2 -1.2,0.2 -1.2,0.2 -1.2,0.2 -1.1,0.3 -1.2,0.3 -1.1,0.3 -1.1,0.4 -1,0.3 -1,0.4 -1,0.4 -1,0.5 -0.9,0.4 -0.8,0.5 -0.8,0.5 -0.8,0.5 -0.8,0.6 -0.6,0.5 -0.7,0.6 -0.6,0.6 -0.5,0.6 -0.5,0.6 -0.4,0.6 -0.4,0.6 -0.3,0.6 -0.3,0.7 -0.2,0.6 -0.1,0.7 -0.1,0.6 -0.1,0.7 0.1,0.6 v 0.7 l 0.2,0.7 0.2,0.6 0.2,0.6 0.3,0.7 0.4,0.6 0.4,0.6 0.4,0.6 0.6,0.6 0.5,0.6 0.7,0.6 0.6,0.5 0.7,0.6 0.8,0.5 0.8,0.5 0.9,0.5 0.9,0.5 0.9,0.4 1,0.4 1,0.4 1,0.4 1.1,0.4 1.1,0.3 1.1,0.3 1.2,0.3 1.1,0.2 1.2,0.2 1.2,0.2 1.3,0.2 1.2,0.1 1.3,0.1 1.2,0.1 1.3,0.1 h 1.3 1.3 l 1.2,-0.1 h 1.3 l 1.2,-0.1 1.3,-0.1 1.2,-0.2 1.2,-0.2 1.2,-0.2 1.2,-0.2 1.2,-0.3 1.1,-0.3 1.1,-0.3 1.1,-0.4 1.1,-0.3 1,-0.4 1,-0.4 0.9,-0.5 0.9,-0.4 0.9,-0.5 0.8,-0.5 0.8,-0.5 0.7,-0.6 0.7,-0.5 0.6,-0.6 0.6,-0.6 0.6,-0.6 0.5,-0.6 0.4,-0.6 0.4,-0.6 0.3,-0.6 0.2,-0.7 0.3,-0.6 0.1,-0.7 0.1,-0.6 V 14 13.4 L 19.3,12.7 19.2,12 19,11.4 18.8,10.8 18.5,10.1 18.1,9.5 17.7,8.9 17.2,8.3 16.7,7.7 16.2,7.1" /></g><g
   transform="translate(314.1,757.6)"
   id="g256"><path
     inkscape:connector-curvature="0"
     id="path258"
     style="fill:none;stroke:#000000;stroke-width:0.50999999;stroke-linecap:butt;stroke-linejoin:miter;stroke-miterlimit:10;stroke-dasharray:none;stroke-opacity:1"
     d="M 0,0 1.1,-10.1 H -1.1 L 0,0 m -96.3,-80.1 -9.9,2 0.6,2 9.3,-4 m 40.6,35.8 4.8,8.9 1.8,-1.2 -6.6,-7.7 m 0,0 3.3,5.1 1.8,4.5 0.2,4.5 -2.7,6.5 -2.6,2.7 -3.1,1.4 m -41,-154.5 -7.8,-6.4 -1.2,1.8 9,4.6 m 0,0 -5.5,-3.5 -4.6,-2.5 -4.7,-1.2 -5.7,0.1 -4.6,1.1 -5.5,1.9 -6.8,2.9 -8.3,4.2 -10.1,5.6" /></g><path
   d="m 453.3544,549.5536 0.649,1.882 0.553,1.889 0.456,1.897 0.361,1.902 0.263,1.906 0.166,1.909 0.07,1.911 -0.028,1.911 -0.125,1.91 -0.222,1.907 -0.319,1.904 -0.416,1.899 -0.512,1.893 -0.607,1.885 -0.704,1.876 -0.799,1.867 -0.893,1.854 -0.987,1.843 -1.081,1.828 -1.173,1.813 -1.264,1.796 -1.356,1.779 -1.446,1.76 -1.534,1.74 -1.623,1.719 -1.709,1.696 -1.795,1.673 -1.879,1.647 -1.963,1.622 -2.044,1.595 -2.124,1.567 -2.204,1.537 -2.28,1.508 -2.357,1.476 -2.431,1.444 -2.503,1.41 -2.574,1.376 -2.644,1.341 -2.71,1.305 -2.776,1.268 -2.84,1.231 -2.901,1.191 -2.96,1.152 -3.018,1.112 -3.074,1.07 -3.127,1.029 -3.178,0.986 -3.227,0.943 -3.274,0.9 -3.319,0.854 -3.361,0.81 -3.4,0.764 -3.439,0.718 -3.474,0.672 -3.507,0.624 -3.537,0.577 -3.565,0.529 -3.592,0.481 -3.614,0.432 -3.635,0.383 -3.653,0.334 -3.669,0.285 -3.682,0.235 -3.693,0.186 -3.701,0.135 -3.707,0.086 -3.71,0.036 -3.71,-0.015 -3.709,-0.064 -3.703,-0.114 -3.697,-0.164 -3.687,-0.214 -3.675,-0.264 -3.66,-0.313 -3.644,-0.363 -3.623,-0.411 -3.601,-0.46 -3.577,-0.508 -3.55,-0.557 -3.52,-0.604 -3.488,-0.652 -3.454,-0.698 -3.417,-0.744 -3.378,-0.791 -3.337,-0.835 -3.294,-0.881 -3.247,-0.924 -3.199,-0.968 -3.149,-1.011 -3.097,-1.052 -3.042,-1.095 -2.985,-1.134 -2.927,-1.175 -2.866,-1.214 -2.803,-1.252 -2.739,-1.289 -2.672,-1.326 -2.604,-1.361 -2.534,-1.397 -2.462,-1.429 -2.388,-1.463 -2.314,-1.494 -2.236,-1.525 -2.159,-1.554 -2.078,-1.583 -1.998,-1.61 -1.915,-1.637 -1.831,-1.662 -1.746,-1.687 -1.659,-1.709 -1.572,-1.731 -1.484,-1.751 -1.394,-1.771 -1.304,-1.79 -1.212,-1.806 -1.12,-1.822 -1.027,-1.836 -0.934,-1.849 -0.839,-1.862 -0.744,-1.872 -0.649,-1.882 -0.553,-1.889 -0.456,-1.897 -0.361,-1.902 -0.263,-1.906 -0.166,-1.909 -0.07,-1.911 0.028,-1.911 0.125,-1.91 0.222,-1.907 0.319,-1.904 0.416,-1.899 0.512,-1.893 0.607,-1.885 0.704,-1.877 0.799,-1.866 0.893,-1.855 0.987,-1.842 1.081,-1.828 1.173,-1.813 1.264,-1.797 1.356,-1.778 1.446,-1.761 1.534,-1.739 1.623,-1.719 1.709,-1.696 1.795,-1.673 1.879,-1.647 1.963,-1.622 2.044,-1.595 2.124,-1.567 2.204,-1.538 2.28,-1.507 2.357,-1.476 2.431,-1.444 2.503,-1.41 2.574,-1.377 2.644,-1.341 2.71,-1.305 2.776,-1.268 2.84,-1.23 2.901,-1.191 2.96,-1.152 3.018,-1.112 3.074,-1.07 3.127,-1.029 3.178,-0.986 3.227,-0.944 3.274,-0.899 3.319,-0.855 3.361,-0.809 3.4,-0.764 3.439,-0.718 3.474,-0.672 3.507,-0.624 3.537,-0.577 3.565,-0.529 3.592,-0.481 3.614,-0.432 3.635,-0.383 3.653,-0.335 3.669,-0.284 3.682,-0.235 3.693,-0.186 3.701,-0.136 3.707,-0.085 3.71,-0.036 3.71,0.014 3.709,0.065 3.703,0.114 3.697,0.164 3.687,0.214 3.675,0.264 3.66,0.313 3.644,0.362 3.623,0.412 3.601,0.46 3.577,0.508 3.55,0.557 3.52,0.604 3.488,0.651 3.454,0.699 3.417,0.744 3.378,0.79 3.337,0.836 3.294,0.88 3.247,0.925 3.199,0.968 3.149,1.01 3.097,1.053 3.042,1.094 2.985,1.135 2.927,1.175 2.866,1.214 2.803,1.252 2.739,1.289 2.672,1.326 2.604,1.361 2.534,1.396 2.462,1.43 2.388,1.462 2.314,1.495 2.236,1.524 2.159,1.555 2.078,1.583 1.998,1.61 1.915,1.637 1.831,1.662 1.746,1.687 1.659,1.709 1.572,1.731 1.484,1.751 1.394,1.771 1.304,1.789 1.212,1.807 1.12,1.821 1.027,1.837 0.934,1.849 0.839,1.862 0.744,1.872"
   style="fill:none;stroke:#000000;stroke-width:0.50999999;stroke-linecap:butt;stroke-linejoin:miter;stroke-miterlimit:10;stroke-dasharray:43.2, 3.60000000000000009, 3.60000000000000009, 3.60000000000000009;stroke-dashoffset:-0.384;stroke-opacity:1"
   id="path262"
   inkscape:connector-curvature="0" /><g
   transform="translate(314.1,563.2)"
   id="g284"><path
     inkscape:connector-curvature="0"
     id="path286"
     style="fill:none;stroke:#000000;stroke-width:0.70899999;stroke-linecap:round;stroke-linejoin:round;stroke-miterlimit:10;stroke-dasharray:none;stroke-opacity:1"
     d="M 0,0 V 194.4 M 125.3,-32.6 75.5,36.9 M 125.3,-35.5 75.5,34 m 0,2.9 V 34 m 49.8,-66.6 v -2.9" /></g><g
   transform="translate(341.8,705.6)"
   id="g292"><path
     inkscape:connector-curvature="0"
     id="path294"
     style="fill:none;stroke:#000000;stroke-width:0.50999999;stroke-linecap:round;stroke-linejoin:round;stroke-miterlimit:10;stroke-dasharray:none;stroke-opacity:1"
     d="m 0,0 v 0 m -27.7,29.5 v 0 M -144,-21.9 v 0" /></g><g
   transform="translate(341.8,705.6)"
   id="g296"><path
     inkscape:connector-curvature="0"
     id="path298"
     style="fill:none;stroke:#000000;stroke-width:0.50999999;stroke-linecap:round;stroke-linejoin:round;stroke-miterlimit:10;stroke-dasharray:none;stroke-opacity:1"
     d="m 0,0 -2.4,-3.2 m 0,0 -1.1,2.2 M 0,-3.6 -2.4,-3.2 M -27.7,29.5 V 52 m -116.3,-73.9 20,-6.2" /></g><path
   d="m 314.1419,563.257 75.484,-61.784"
   style="fill:none;stroke:#000016;stroke-width:0.50999999;stroke-linecap:round;stroke-linejoin:round;stroke-miterlimit:10;stroke-dasharray:43.2, 3.60000000000000009, 3.60000000000000009, 3.60000000000000009;stroke-dashoffset:-0.17299999;stroke-opacity:1"
   id="path302"
   inkscape:connector-curvature="0" /><path
   d="m 314.1419,563.257 125.351,-34.068"
   style="fill:none;stroke:#000001;stroke-width:0.50999999;stroke-linecap:round;stroke-linejoin:round;stroke-miterlimit:10;stroke-dasharray:43.2, 3.60000000000000009, 3.60000000000000009, 3.60000000000000009;stroke-dashoffset:10.65100002;stroke-opacity:1"
   id="path310"
   inkscape:connector-curvature="0" /><path
   d="m 314.1419,563.257 -125.351,34.068"
   style="fill:none;stroke:#000000;stroke-width:0.50999999;stroke-linecap:round;stroke-linejoin:round;stroke-miterlimit:10;stroke-dasharray:43.2, 3.60000000000000009, 3.60000000000000009, 3.60000000000000009;stroke-dashoffset:10.65100002;stroke-opacity:1"
   id="path314"
   inkscape:connector-curvature="0" /><path
   d="m 333.8,547.1 7,3.7 1.4,-0.8 m 4.6,4.3 -5,-4.5 -1.7,0.6 m -26,12.8 -8.5,5.5 1.4,1.7 m -68.4,54.6 8.5,-5.6 -1.4,-1.6"
   style="fill:#000015;fill-opacity:1;fill-rule:nonzero;stroke:none"
   id="path322"
   inkscape:connector-curvature="0" /><g
   transform="translate(314.1,757.6)"
   id="g324"><path
     inkscape:connector-curvature="0"
     id="path326"
     style="fill:#000000;fill-opacity:1;fill-rule:nonzero;stroke:none"
     d="m 0,0 1.1,-10.1 h -2.2 m -95.2,-70 -9.9,2 0.6,2 m 49.9,31.8 4.8,8.9 1.8,-1.2 m -50.7,-137.5 -7.8,-6.4 -1.2,1.8" /></g><path
   d="m 391,592.9 43.9,-61.1 m 6.5,-1.6 -49.9,69.5 m 1.7,3.3 -151,123.6 M 235.5,717.4 386,594.2 m 5,-92 v 93.3 m -2.8,-2 v -92.1 m 2.2,-1.1 45.9,25.5 m -1.6,2.3 -43.7,-24.3 m 49.9,30.8 -3.4,0.9 m -6.6,1.8 -39.9,10.9 m -2.8,0.8 -194.7,52.9 m -6.2,-10.1 200.9,-54.6 m 2.8,-0.8 39.4,-10.7 m 3.9,-1 3.7,-1 m -0.2,3 1.7,0.9 m -246,74.3 45.1,112.9 m -4.3,3.9 -47.9,-120 m 251.9,-69.6 v 0 l -0.4,0.8 -0.4,0.7 m 0,0 -0.7,0.1 -0.6,0.2 -0.5,0.2 -0.4,0.3 -0.2,0.2 -0.2,0.2 m 4.5,-5.1 0.8,-0.1 0.7,0.2 0.6,0.4 0.3,0.5 0.1,0.8 -0.1,0.7 -0.3,0.8 -0.1,0.2 m -2,-3.5 -0.3,0.7 m 0.4,0.2 h 0.1 l 0.1,0.2 v 0.2 0.1 l -0.1,0.1 -0.1,0.2 -0.2,0.1 -0.3,0.2 -0.2,0.1 -0.3,0.2 -0.2,0.1 m -47.5,67.1 0.7,0.3 0.4,0.6 0.2,0.7 -0.1,0.8 -0.3,0.8 -0.6,0.7 -0.7,0.6 -0.8,0.3 m 1.5,-6.5 -0.1,0.2 m 0,0.8 v 0.2 l -0.2,0.5 m -1.2,4.8 v -2.4 m 0,0 -1.2,-0.4 m 0,-4.7 v 4.7 m 5,-1.2 0.5,0.8 0.3,1.1 0.2,1.1 -0.1,1 -0.3,0.9 -0.5,0.8 -0.7,0.5 -0.8,0.4 -0.9,0.1 -1,-0.1 -1,-0.3 -1,-0.6 -1,-0.7 -0.8,-0.9 -0.7,-1 -0.5,-1.1 -0.2,-1 -0.1,-1.1 0.1,-1 0.4,-0.8 0.5,-0.7 0.8,-0.5 0.8,-0.3 1,-0.1 m 2.6,0.9 v 0 l 0.1,0.1 m -156.2,123.4 0.2,-0.2 0.4,-0.3 m 6.7,9.2 -0.4,0.3 -0.9,0.3 -0.9,0.1 -1,-0.1 -1,-0.4 -1,-0.6 -0.9,-0.7 -0.8,-0.9 -0.7,-1 -0.4,-1 -0.3,-1.1 -0.1,-1.1 0.2,-0.9 0.3,-0.9 0.6,-0.7 M 390.8,598.3 v -2.1 m 0,2.1 -1.2,0.3 m -1.4,-97.2 v -0.2 l 0.3,-0.2 0.4,-0.2 0.5,-0.1 h 0.6 l 0.5,0.2 0.3,0.2 m 0.2,1.1 v -0.2 -0.2 l -0.1,-0.4 -0.1,-0.2 v -0.1 m -2.4,97.1 0.2,-0.1 0.3,-0.1 0.4,-0.1 h 0.3 0.4 l 0.3,0.1 0.3,0.1 0.2,0.2 m -2.2,-97.4 0.1,-0.1 0.4,-0.4 0.5,-0.2 h 0.5 l 0.4,0.1 0.2,0.3 0.1,0.5 m 45.9,25.5 v -0.1 -0.2 l -0.1,-0.2 -0.1,-0.1 -0.1,-0.1 -0.1,-0.1 m -1.6,2.3 h 0.1 l 0.2,0.1 h 0.2 0.2 0.2 l 0.2,-0.1 0.2,-0.1 0.2,-0.1 0.1,-0.2 0.1,-0.2 0.1,-0.2 0.2,-0.4 v -0.3 m -247.2,76.1 -0.5,-0.4 -0.6,-0.5 -0.5,-0.7 -0.5,-0.9 -0.4,-1.1 -0.4,-1.1 -0.3,-1.1 -0.1,-1.1 -0.1,-1.1 v -0.9 l 0.2,-0.8 0.3,-0.6 0.3,-0.4 0.4,-0.2 m 2.2,10.9 0.8,-0.2 0.4,-0.1 0.4,-0.1 0.6,-0.1 0.4,-0.1 0.4,-0.1 h 0.5 l 0.3,-0.1 h 0.1 0.1 m 244,-71.3 -0.3,-1.1 -0.2,-1.1 -0.2,-1.1 v -1 l 0.1,-0.9 0.2,-0.8 0.3,-0.5 0.4,-0.4 0.4,-0.1 0.5,0.2 0.6,0.3 0.5,0.6 0.5,0.7 0.5,0.9 0.2,0.5 m 0.8,2.5 0.1,0.3 0.1,1.1 0.1,1.1 -0.1,0.9 -0.1,0.8 -0.3,0.6 -0.4,0.4 -0.4,0.1 h -0.5 l -0.5,-0.3 -0.6,-0.5 -0.2,-0.3 m -1.2,-6.8 -0.2,-0.2 -0.4,-0.1 -0.1,0.1 -0.1,0.1 v 0.1 0.1 0.1 0.2 l 0.2,0.4 0.3,0.5 0.3,0.4 0.5,0.7 m -251.2,70.5 -0.4,-0.3 -0.3,-0.6 -0.2,-0.7 0.2,-0.8 v -0.1"
   style="fill:none;stroke:#000000;stroke-width:0.70899999;stroke-linecap:round;stroke-linejoin:round;stroke-miterlimit:10;stroke-dasharray:none;stroke-opacity:1"
   id="path330"
   inkscape:connector-curvature="0" /><text
   y="-530.40106"
   x="165.51718"
   id="text62-4"
   style="font-variant:normal;font-weight:900;font-stretch:normal;font-size:12.00600433px;font-family:'Arial Black';-inkscape-font-specification:Arial-Black;writing-mode:lr-tb;fill:#000000;fill-opacity:1;fill-rule:nonzero;stroke:none;stroke-width:0.96640897"
   transform="matrix(1.0005004,0,-0.26781599,-0.99949986,0,0)"><tspan
     style="stroke-width:0.96640897"
     id="tspan60-2"
     y="-530.40106"
     x="165.51718">i</tspan></text>


<g
   ns0:jacobian_sqrt="2.666666"
   inkscapeversion="0.92.3"
   ns0:alignment="middle center"
   ns0:scale="1.99999985825"
   ns0:preamble="C:\\Users\\andre\\AppData\\Roaming\\inkscape\\extensions\\textext\\default_packages.tex"
   ns0:text="\\[\n\\bm{\\ell}\n\\]"
   ns0:pdfconverter="pstoedit"
   ns0:texconverter="pdflatex"
   ns0:version="0.9.0"
   word-spacing="normal"
   letter-spacing="normal"
   font-size-adjust="none"
   font-stretch="normal"
   font-weight="normal"
   font-variant="normal"
   font-style="normal"
   stroke-miterlimit="10.433"
   xml:space="preserve"
   transform="matrix(2.666666,0,0,2.666666,-381.67458,-1158.848)"
   id="content"
   style="font-style:normal;font-variant:normal;font-weight:normal;font-stretch:normal;letter-spacing:normal;word-spacing:normal;text-anchor:start;fill:none;fill-opacity:1;fill-rule:evenodd;stroke:#000000;stroke-linecap:butt;stroke-linejoin:miter;stroke-miterlimit:10.43299961;stroke-dasharray:none;stroke-dashoffset:0;stroke-opacity:1">
<path
   id="path1593"
   d="m 302.5925,647.655 0.02,-0.09 0.02,-0.08 0.03,-0.08 0.02,-0.08 0.03,-0.08 0.03,-0.07 0.03,-0.07 0.04,-0.07 0.03,-0.06 0.04,-0.06 0.04,-0.06 0.04,-0.06 0.05,-0.05 0.04,-0.05 0.05,-0.04 0.05,-0.04 0.05,-0.05 0.05,-0.03 0.05,-0.04 0.05,-0.03 0.05,-0.03 0.06,-0.03 0.06,-0.02 0.05,-0.02 0.06,-0.02 0.06,-0.02 0.06,-0.01 0.06,-0.01 0.06,-0.01 h 0.06 l 0.07,-0.01 h 0.06 c 0.37,0 0.95,0.13 1.65,0.65 0.23,0.18 0.24,0.2 0.24,0.27 0,0.05 -0.12,0.26 -0.24,0.26 -0.04,0 -0.06,0 -0.16,-0.1 -0.38,-0.3 -0.94,-0.72 -1.47,-0.72 -0.58,0 -0.6,0.8 -0.6,1.04 0,0.33 0.04,0.56 0.09,0.86 0.07,0.07 0.28,0.25 0.35,0.33 0.53,0.52 2.11,2.1 2.11,3.54 0,0.75 -0.41,0.96 -0.77,0.96 v -0.35 c 0.24,0 0.32,-0.2 0.32,-0.52 0,-0.37 -0.11,-1.04 -0.81,-2 -0.39,-0.53 -0.91,-1.07 -1.03,-1.18 v 0 c 0.42,1.66 0.47,1.85 0.64,2.37 0.07,0.2 0.44,1.33 0.88,1.33 v 0.35 c -1.53,0 -2.73,-3.23 -2.73,-5.18 -0.17,-0.15 -0.62,-0.52 -0.79,-0.68 -0.13,-0.12 -0.13,-0.13 -0.13,-0.19 0,-0.05 0.12,-0.26 0.22,-0.26 0.05,0 0.07,0 0.21,0.13 z"
   inkscape:connector-curvature="0"
   style="fill:#000000;stroke-width:0" />
</g><path
   style="fill:#000000;fill-opacity:1;stroke:#000000;stroke-width:0.10510349;stroke-opacity:1"
   d="m 521.85996,451.89542 0.0305,-0.86212 28.58815,-15.9079 c 15.72348,-8.74934 28.8378,-16.02297 29.14294,-16.16361 0.64644,-0.29796 0.8664,-0.31428 1.28919,-0.0957 0.30098,0.15564 0.83615,1.02285 0.83615,1.35492 0,0.0856 -0.37655,0.48156 -0.83678,0.87991 -0.75033,0.64946 -3.48106,2.19333 -26.42983,14.94266 -27.97364,15.54092 -25.45082,14.2188 -30.41316,15.93846 l -2.23768,0.77545 z"
   id="path1681"
   inkscape:connector-curvature="0"
   transform="matrix(0.75000002,0,0,-0.75000002,0,841.89002)" /><path
   style="fill:#000000;fill-opacity:1;stroke:#000000;stroke-width:0.00390625;stroke-opacity:1"
   d="m 521.8081,451.44382 -5.1e-4,-0.37979 0.0121,-0.006 c 0.007,-0.003 0.0131,-0.005 0.0144,-0.004 0.001,10e-4 -0.004,0.17498 -0.0116,0.38603 l -0.0139,0.38372 z"
   id="path1683"
   inkscape:connector-curvature="0"
   transform="matrix(0.75000002,0,0,-0.75000002,0,841.89002)" /><path
   style="fill:#000000;fill-opacity:1;stroke:#000000;stroke-width:0.00390625;stroke-opacity:1"
   d="m 521.80511,451.52672 c 5e-5,-0.31554 9.1e-4,-0.41403 0.003,-0.30664 10e-4,0.087 0.003,0.21885 0.004,0.29297 7e-4,0.0769 0.002,0.1222 0.004,0.10547 l 0.003,-0.0293 7e-4,0.0312 c 3.9e-4,0.0172 -0.002,0.0444 -0.006,0.0605 -0.005,0.0235 -0.006,0.0447 -0.004,0.10742 10e-4,0.043 7.1e-4,0.10625 -8.6e-4,0.14063 -0.002,0.0344 -0.003,-0.14668 -0.003,-0.40235 z"
   id="path1685"
   inkscape:connector-curvature="0"
   transform="matrix(0.75000002,0,0,-0.75000002,0,841.89002)" /><path
   style="fill:#000000;fill-opacity:1;stroke:#000000;stroke-width:0.01104854;stroke-opacity:1"
   d="m 521.59873,454.24747 c 0.0378,-0.0749 0.0625,-0.15592 0.13103,-0.42929 l 0.0844,-0.33698 1.63382,-0.55548 c 0.89859,-0.30551 1.63751,-0.5541 1.64202,-0.55242 0.007,0.003 -3.49531,1.95227 -3.52565,1.96238 -0.007,0.002 0.009,-0.0375 0.0343,-0.0882 z"
   id="path1687"
   inkscape:connector-curvature="0"
   transform="matrix(0.75000002,0,0,-0.75000002,0,841.89002)" /><path
   style="fill:#000000;fill-opacity:1;stroke:#000000;stroke-width:0.00390625;stroke-opacity:1"
   d="m 525.09068,452.37215 c -0.003,-0.002 -0.004,-0.004 -0.002,-0.005 0.007,-0.004 0.045,-0.0154 0.0466,-0.0138 0.001,0.001 -0.0341,0.0226 -0.0379,0.0225 -7.8e-4,-3e-5 -0.004,-0.002 -0.007,-0.003 z"
   id="path1689"
   inkscape:connector-curvature="0"
   transform="matrix(0.75000002,0,0,-0.75000002,0,841.89002)" /><path
   style="fill:#000000;fill-opacity:1;stroke:#000000;stroke-width:0.00552427;stroke-opacity:1"
   d="m 527.78634,450.66789 c 0.009,-0.004 0.10109,-0.0463 0.2044,-0.0934 0.42417,-0.19331 0.71339,-0.33254 1.30649,-0.62895 0.71249,-0.35607 1.30665,-0.66428 2.25847,-1.17154 0.16507,-0.088 0.30122,-0.15885 0.30256,-0.15751 10e-4,10e-4 -0.67565,0.37906 -1.50441,0.83937 l -1.50685,0.83694 -0.52664,0.18927 c -0.48682,0.17495 -0.57917,0.20709 -0.53402,0.18583 z"
   id="path1691"
   inkscape:connector-curvature="0"
   transform="matrix(0.75000002,0,0,-0.75000002,0,841.89002)" /><path
   style="fill:#000000;fill-opacity:1;stroke:#000000;stroke-width:0.00552427;stroke-opacity:1"
   d="m 531.87154,448.60688 c 0,-0.004 0.034,-0.0205 0.0369,-0.0175 0.002,0.002 -0.005,0.007 -0.014,0.0115 -0.0175,0.009 -0.0229,0.0105 -0.0229,0.006 z"
   id="path1693"
   inkscape:connector-curvature="0"
   transform="matrix(0.75000002,0,0,-0.75000002,0,841.89002)" /><path
   style="fill:#000000;fill-opacity:1;stroke:#000000;stroke-width:0.0078125;stroke-opacity:1"
   d="m 577.69736,423.14511 c 0.004,-0.004 0.12031,-0.0722 0.25781,-0.1509 1.06354,-0.60892 1.96098,-1.14256 2.374,-1.41165 0.0553,-0.036 0.10171,-0.0644 0.10312,-0.063 0.001,10e-4 -0.0808,0.0739 -0.18278,0.16104 l -0.18534,0.15847 -0.55863,0.31037 c -0.30724,0.17071 -0.58097,0.31874 -0.60829,0.32895 -0.0273,0.0102 -0.0747,0.0365 -0.10525,0.0585 -0.0485,0.0348 -1.05267,0.59846 -1.0888,0.61118 -0.009,0.003 -0.011,0.002 -0.006,-0.003 z"
   id="path1695"
   inkscape:connector-curvature="0"
   transform="matrix(0.75000002,0,0,-0.75000002,0,841.89002)" /><path
   style="fill:#000000;fill-opacity:1;stroke:#000000;stroke-width:0.00390625;stroke-opacity:1"
   d="m 577.15743,423.45034 c 0.002,-0.002 0.11709,-0.0679 0.25567,-0.14691 0.13857,-0.079 0.25722,-0.14676 0.26367,-0.15063 0.009,-0.006 0.0127,-0.006 0.0161,-0.002 0.003,0.004 -0.0564,0.0386 -0.26406,0.15394 -0.14765,0.082 -0.26995,0.14913 -0.27177,0.14913 -0.002,0 -0.002,-10e-4 3.9e-4,-0.003 z"
   id="path1697"
   inkscape:connector-curvature="0"
   transform="matrix(0.75000002,0,0,-0.75000002,0,841.89002)" /><path
   style="fill:#000000;fill-opacity:1;stroke:#000000;stroke-width:0.00390625;stroke-opacity:1"
   d="m 577.12013,423.47132 c 0,-0.003 0.0318,-0.0183 0.034,-0.0163 10e-4,0.001 -0.005,0.006 -0.0139,0.01 -0.0163,0.008 -0.0201,0.009 -0.0201,0.006 z"
   id="path1699"
   inkscape:connector-curvature="0"
   transform="matrix(0.75000002,0,0,-0.75000002,0,841.89002)" /><path
   style="fill:#000000;fill-opacity:1;stroke:#000000;stroke-width:0.00390625;stroke-opacity:1"
   d="m 577.10255,423.48101 c 0.001,-0.002 0.004,-0.004 0.006,-0.004 0.002,0 0.003,0.002 10e-4,0.004 -10e-4,0.002 -0.004,0.004 -0.006,0.004 -0.002,0 -0.003,-0.002 -0.001,-0.004 z"
   id="path1701"
   inkscape:connector-curvature="0"
   transform="matrix(0.75000002,0,0,-0.75000002,0,841.89002)" /><path
   style="fill:#000000;fill-opacity:1;stroke:#000000;stroke-width:0.00390625;stroke-opacity:1"
   d="m 581.58107,420.53748 c 0,-0.001 0.0177,-0.0217 0.0394,-0.0455 0.0777,-0.0855 0.14543,-0.17455 0.16402,-0.21548 l 0.007,-0.0162 9e-5,0.0514 c 8e-5,0.0495 -2.6e-4,0.0517 -0.009,0.0586 -0.005,0.004 -0.0517,0.0436 -0.10348,0.0882 -0.0518,0.0446 -0.0951,0.0811 -0.0962,0.0811 -10e-4,0 -0.002,-9.6e-4 -0.002,-0.002 z"
   id="path1703"
   inkscape:connector-curvature="0"
   transform="matrix(0.75000002,0,0,-0.75000002,0,841.89002)" /><path
   style="fill:#000000;fill-opacity:1;stroke:#000000;stroke-width:0.00390625;stroke-opacity:1"
   d="m 581.78498,420.10456 c -0.003,-0.0148 -0.004,-0.0276 -0.003,-0.0284 0.004,-0.004 0.0109,0.0227 0.01,0.0381 -10e-4,0.0169 -10e-4,0.0168 -0.006,-0.01 z"
   id="path1705"
   inkscape:connector-curvature="0"
   transform="matrix(0.75000002,0,0,-0.75000002,0,841.89002)" /><path
   style="fill:#000000;fill-opacity:1;stroke:#000000;stroke-width:0.00390625;stroke-opacity:1"
   d="m 581.37568,419.28079 c -0.0703,-0.10354 -0.16548,-0.2209 -0.24536,-0.30271 -0.0299,-0.0306 -0.0532,-0.0557 -0.0518,-0.0557 10e-4,0 0.04,0.0187 0.0859,0.0416 l 0.0834,0.0416 0.0751,0.15021 c 0.0413,0.0826 0.0744,0.15089 0.0736,0.15171 -8.3e-4,8.2e-4 -0.0101,-0.0112 -0.0207,-0.0268 z"
   id="path1707"
   inkscape:connector-curvature="0"
   transform="matrix(0.75000002,0,0,-0.75000002,0,841.89002)" /><path
   style="fill:#000000;fill-opacity:1;stroke:#000000;stroke-width:0.02209709;stroke-opacity:1"
   d="m 583.13129,420.08895 c 0,-0.0115 0.32069,-0.31118 0.71263,-0.66604 0.39195,-0.35487 0.79437,-0.72531 0.89426,-0.82321 0.0999,-0.0979 0.18716,-0.17246 0.19394,-0.16569 0.007,0.007 0.0824,0.11066 0.16796,0.23086 l 0.15564,0.21854 -0.0584,0.0442 c -0.0321,0.0243 -0.42809,0.23951 -0.87991,0.47823 -0.69059,0.36486 -0.84531,0.45554 -0.97088,0.569 -0.13788,0.12457 -0.21523,0.16559 -0.21523,0.11412 z"
   id="path1709"
   inkscape:connector-curvature="0"
   transform="matrix(0.75000002,0,0,-0.75000002,0,841.89002)" /><path
   style="fill:#000000;fill-opacity:1;stroke:#000000;stroke-width:0.00552427;stroke-opacity:1"
   d="m 584.16853,418.1924 c 0.0253,-0.0386 0.29275,-0.41051 0.29603,-0.41164 0.002,-7.1e-4 0.009,0.007 0.0157,0.0166 0.007,0.01 0.0195,0.028 0.0288,0.0404 l 0.0169,0.0225 -0.17716,0.17084 c -0.0974,0.094 -0.17992,0.17183 -0.18327,0.17307 -0.003,0.001 -0.002,-0.004 0.003,-0.0118 z"
   id="path1711"
   inkscape:connector-curvature="0"
   transform="matrix(0.75000002,0,0,-0.75000002,0,841.89002)" /><path
   style="fill:#000000;fill-opacity:1;stroke:#000000;stroke-width:0.00552427;stroke-opacity:1"
   d="m 583.15292,417.95885 c 0.002,-0.009 0.058,-0.31765 0.12477,-0.68564 0.1139,-0.62728 0.12526,-0.68714 0.13043,-0.68714 10e-4,0 0.0574,0.015 0.12508,0.0334 0.11222,0.0305 0.12446,0.035 0.13866,0.0511 0.009,0.01 0.0519,0.0901 0.0964,0.17859 l 0.0808,0.16089 -0.24799,0.34734 c -0.29773,0.41701 -0.45281,0.62515 -0.44811,0.60146 z"
   id="path1713"
   inkscape:connector-curvature="0"
   transform="matrix(0.75000002,0,0,-0.75000002,0,841.89002)" /><path
   style="fill:#000000;fill-opacity:1;stroke:#000000;stroke-width:0.02209709;stroke-opacity:1"
   d="m 586.54624,419.85928 c -0.158,-0.0218 -0.30218,-0.0405 -0.32041,-0.0415 -0.0293,-0.002 -0.13258,-0.21003 -0.13258,-0.26751 0,-0.0119 0.0224,-0.0216 0.0497,-0.0217 0.20575,-5.1e-4 0.34082,-0.11393 0.48377,-0.40625 l 0.10732,-0.21948 v -0.31794 c 0,-0.3499 -0.0122,-0.39564 -0.14275,-0.53671 -0.0394,-0.0425 -0.11286,-0.15517 -0.16329,-0.25029 l -0.0917,-0.17295 v -0.27595 -0.27595 l 0.77892,-0.78124 0.77892,-0.78124 0.11302,0.15843 c 0.15454,0.21664 0.20025,0.31303 0.4066,0.85751 0.17405,0.45925 0.18063,0.4837 0.24243,0.90082 l 0.0635,0.42875 -0.0571,0.45346 -0.0571,0.45346 -0.14475,0.24184 -0.14475,0.24185 -0.32501,0.21737 -0.32501,0.21736 -0.38728,0.11146 c -0.21301,0.0613 -0.40034,0.11026 -0.41631,0.10878 -0.016,-10e-4 -0.15829,-0.0205 -0.31628,-0.0423 z"
   id="path1715"
   inkscape:connector-curvature="0"
   transform="matrix(0.75000002,0,0,-0.75000002,0,841.89002)" /><path
   style="fill:#000000;fill-opacity:1;stroke:#000000;stroke-width:0.015625;stroke-opacity:1"
   d="m 584.92057,416.29058 -0.4313,-0.11828 -0.0893,-0.18099 c -0.15261,-0.30932 -0.66943,-1.20675 -0.73087,-1.26913 -0.073,-0.0741 -0.13821,-0.10866 -0.24693,-0.1309 l -0.0859,-0.0176 -3.12109,-4.35536 c -1.7166,-2.39545 -3.12109,-4.35849 -3.12109,-4.3623 0,-0.004 0.35992,-0.005 0.79982,-0.003 l 0.79983,0.004 3.3482,4.67187 3.3482,4.67188 4.1e-4,0.60546 c 3.2e-4,0.47497 -0.004,0.60515 -0.0191,0.60396 -0.0107,-8.2e-4 -0.21362,-0.0547 -0.45083,-0.11979 z"
   id="path1723"
   inkscape:connector-curvature="0"
   transform="matrix(0.75000002,0,0,-0.75000002,0,841.89002)" /><path
   style="fill:#000000;fill-opacity:1;stroke:#000000;stroke-width:0.015625;stroke-opacity:1"
   d="m 586.3415,415.52126 c -0.005,-0.5712 -0.006,-0.58771 -0.0404,-0.65625 -0.0193,-0.0387 -1.47316,-2.07682 -3.2307,-4.52923 -1.75755,-2.4524 -3.19936,-4.46509 -3.20403,-4.47265 -0.005,-0.008 0.22957,-0.0135 0.54321,-0.0132 l 0.5517,5.2e-4 0.94532,1.31816 c 0.88946,1.24027 0.9459,1.32288 0.95536,1.39826 0.0121,0.0964 0.0743,0.22901 0.13395,0.28585 0.0239,0.0228 0.0842,0.0648 0.13388,0.0933 0.0879,0.0504 0.1129,0.0833 0.91452,1.20074 0.48426,0.67507 0.83601,1.17993 0.8529,1.22417 0.018,0.0471 0.061,0.107 0.11478,0.15995 0.05,0.0492 0.58478,0.77919 1.2778,1.74424 l 1.19178,1.65958 -0.18553,0.19565 c -0.10204,0.10761 -0.35736,0.37144 -0.56739,0.58628 l -0.38186,0.39063 z"
   id="path1725"
   inkscape:connector-curvature="0"
   transform="matrix(0.75000002,0,0,-0.75000002,0,841.89002)" /><path
   style="fill:#000000;fill-opacity:1;stroke:#000000;stroke-width:0.015625;stroke-opacity:1"
   d="m 581.85187,414.23715 c -0.0258,-0.009 -0.19102,-0.0728 -0.36719,-0.14212 -0.31526,-0.12412 -0.32376,-0.12868 -0.53906,-0.2894 -0.13667,-0.10202 -0.30856,-0.25197 -0.4581,-0.39962 l -0.23935,-0.23631 -2.62393,-3.65104 c -1.44316,-2.00808 -2.62393,-3.65515 -2.62393,-3.66016 0,-0.005 0.20636,-0.009 0.45859,-0.009 h 0.45859 l 2.93594,4.09686 c 1.61477,2.25327 2.96982,4.14467 3.01122,4.20312 0.0756,0.10666 0.074,0.11744 -0.0128,0.0878 z"
   id="path1727"
   inkscape:connector-curvature="0"
   transform="matrix(0.75000002,0,0,-0.75000002,0,841.89002)" /><path
   style="fill:#000000;fill-opacity:1;stroke:#000000;stroke-width:0.03125;stroke-opacity:1"
   d="m 567.12438,391.95003 c -5.47422,-7.64067 -9.95782,-13.90513 -9.96354,-13.92103 -0.006,-0.0172 0.30925,-0.0287 0.78125,-0.0284 l 0.79166,4.9e-4 9.95313,13.89155 c 5.47422,7.64036 9.95781,13.90498 9.96354,13.92139 0.006,0.0184 -0.29174,0.0295 -0.78125,0.029 l -0.79167,-8.5e-4 z"
   id="path1729"
   inkscape:connector-curvature="0"
   transform="matrix(0.75000002,0,0,-0.75000002,0,841.89002)" /><path
   style="fill:#000000;fill-opacity:1;stroke:#000000;stroke-width:0.03125;stroke-opacity:1"
   d="m 569.95149,392.02353 c -5.44579,-7.60118 -9.9356,-13.86602 -9.97736,-13.92188 l -0.0759,-0.10156 h 0.53127 0.53127 l 9.96673,13.88281 c 5.48169,7.63555 9.97715,13.90039 9.9899,13.92188 0.0182,0.0306 -0.094,0.0391 -0.52064,0.0391 h -0.54382 z"
   id="path1731"
   inkscape:connector-curvature="0"
   transform="matrix(0.75000002,0,0,-0.75000002,0,841.89002)" /><path
   style="fill:#000000;fill-opacity:1;stroke:#000000;stroke-width:0.03125;stroke-opacity:1"
   d="m 564.99938,391.9478 c -5.49141,-7.64254 -9.98907,-13.90726 -9.99479,-13.92162 -0.006,-0.0144 0.20694,-0.0261 0.47261,-0.0261 h 0.48303 l 9.82426,13.70937 c 5.40334,7.54016 9.89202,13.805 9.97483,13.92188 l 0.15057,0.2125 -0.46307,-2.6e-4 -0.46307,-2.6e-4 z"
   id="path1733"
   inkscape:connector-curvature="0"
   transform="matrix(0.75000002,0,0,-0.75000002,0,841.89002)" /><path
   style="fill:#000000;fill-opacity:1;stroke:#000000;stroke-width:0.17677669;stroke-opacity:1"
   d="m 539.63977,353.56988 c -9.62365,-13.42834 -17.54648,-24.50561 -17.60628,-24.61615 -0.0598,-0.11055 -0.15772,-0.40767 -0.2176,-0.66028 -0.0863,-0.36412 -0.0262,-0.49696 0.28995,-0.64102 0.37849,-0.17244 1.30953,1.08876 18.24883,24.72005 9.8175,13.69598 17.95914,25.0617 18.09253,25.25717 0.23126,0.33888 0.20645,0.3554 -0.53367,0.3554 h -0.7762 z"
   id="path1735"
   inkscape:connector-curvature="0"
   transform="matrix(0.75000002,0,0,-0.75000002,0,841.89002)" /><path
   style="fill:#000000;fill-opacity:1;stroke:#000000;stroke-width:0.17677669;stroke-opacity:1"
   d="m 541.56682,352.39662 c -10.08794,-14.07363 -18.37424,-25.79776 -18.41401,-26.05362 -0.0398,-0.25586 -0.003,-0.50778 0.0808,-0.55981 0.0842,-0.052 6.93005,9.34528 15.21303,20.88291 8.28298,11.53764 16.73125,23.30434 18.77393,26.14823 3.57054,4.97104 3.69415,5.17072 3.20097,5.17072 -0.4793,0 -1.71761,-1.68055 -18.85469,-25.58843 z"
   id="path1737"
   inkscape:connector-curvature="0"
   transform="matrix(0.75000002,0,0,-0.75000002,0,841.89002)" /><path
   style="fill:#000000;fill-opacity:1;stroke:#000000;stroke-width:0.17677669;stroke-opacity:1"
   d="m 539.2714,356.11794 c -8.64323,-12.02691 -16.09768,-22.40731 -16.56543,-23.06755 -0.69955,-0.98743 -0.84072,-1.31342 -0.7955,-1.83704 0.0519,-0.60047 1.01277,0.69985 16.93715,22.9195 9.28519,12.95584 16.90869,23.6227 16.9411,23.70414 0.0324,0.0814 -0.13486,0.14806 -0.37172,0.14806 -0.36932,0 -2.66833,-3.1137 -16.1456,-21.86711 z"
   id="path1739"
   inkscape:connector-curvature="0"
   transform="matrix(0.75000002,0,0,-0.75000002,0,841.89002)" /><path
   style="fill:#000000;fill-opacity:1;stroke:#000000;stroke-width:0.02209709;stroke-opacity:1"
   d="m 521.1064,323.85991 -1.17494,-1.63959 v -0.1739 c 0,-0.0957 0.007,-0.17343 0.0166,-0.17285 0.009,5.8e-4 0.0937,0.0329 0.18788,0.0718 0.14634,0.0605 0.2297,0.12066 0.57217,0.41327 0.33434,0.28566 0.46236,0.4139 0.77136,0.77269 l 0.3705,0.4302 0.17713,0.47578 0.17713,0.47579 0.0574,0.45957 c 0.034,0.27238 0.0497,0.47325 0.0386,0.49318 -0.0141,0.0251 -0.31594,-0.381 -1.19375,-1.60596 z"
   id="path1741"
   inkscape:connector-curvature="0"
   transform="matrix(0.75000002,0,0,-0.75000002,0,841.89002)" /><path
   style="fill:#000000;fill-opacity:1;stroke:#000000;stroke-width:0.02209709;stroke-opacity:1"
   d="m 520.25739,326.54223 -0.32593,-0.45544 v -0.13914 -0.13914 l 0.10496,-0.0157 c 0.0577,-0.009 0.20364,-0.049 0.32426,-0.0896 0.12061,-0.0406 0.22268,-0.0705 0.22681,-0.0663 0.004,0.004 0.005,0.31201 0.002,0.68416 l -0.006,0.67663 z"
   id="path1743"
   inkscape:connector-curvature="0"
   transform="matrix(0.75000002,0,0,-0.75000002,0,841.89002)" /><path
   style="fill:#000000;fill-opacity:1;stroke:#000000;stroke-width:0.0078125;stroke-opacity:1"
   d="m 523.57344,332.82371 c -0.46366,-0.61173 -0.82283,-1.06674 -1.05695,-1.33899 -0.34268,-0.39848 -0.49029,-0.50762 -0.60639,-0.44839 -0.0689,0.0351 -0.0863,0.0888 -0.092,0.28366 -0.008,0.2568 0.0266,0.43353 0.13059,0.67628 0.0135,0.0316 0.0233,0.0587 0.0217,0.0603 -0.002,0.002 -0.0388,-0.0476 -0.0826,-0.10936 l -0.0797,-0.11226 0.002,-0.7477 0.002,-0.74771 0.9442,1.31768 c 0.51931,0.72472 0.9426,1.31927 0.94066,1.32122 -0.002,0.002 -0.0575,-0.0677 -0.12352,-0.15476 z"
   id="path1745"
   inkscape:connector-curvature="0"
   transform="matrix(0.75000002,0,0,-0.75000002,0,841.89002)" /><path
   style="fill:#000000;fill-opacity:1;stroke:#000000;stroke-width:0.35355338;stroke-opacity:1"
   d="m 519.32101,398.38913 -1.14905,-0.29776 0.0396,-32.95875 c 0.0325,-27.06625 0.26526,-42.01973 0.61035,-39.21073 0.0315,0.25605 0.45571,0.98803 0.94279,1.62663 l 0.88561,1.16109 -0.0901,34.98864 -0.0901,34.98864 z"
   id="path1747"
   inkscape:connector-curvature="0"
   transform="matrix(0.75000002,0,0,-0.75000002,0,841.89002)" /><path
   style="fill:#000000;fill-opacity:1;stroke:#000000;stroke-width:0.35355338;stroke-opacity:1"
   d="m 518.78844,452.77212 c -0.58401,-0.44328 -0.61556,-2.05817 -0.53033,-27.14648 l 0.0906,-26.67517 1.14904,0.29777 1.14905,0.29778 v 26.85994 c 0,25.34949 -0.0348,26.85932 -0.61872,26.84871 -0.34029,-0.006 -0.89814,-0.22333 -1.23967,-0.48255 z"
   id="path1749"
   inkscape:connector-curvature="0"
   transform="matrix(0.75000002,0,0,-0.75000002,0,841.89002)" /><path
   style="fill:#000000;fill-opacity:1;stroke:#000000;stroke-width:0.015625;stroke-opacity:1"
   d="m 520.38491,453.23261 c 0,-0.002 0.0183,-0.0452 0.0407,-0.0957 0.0836,-0.18864 0.15433,-0.60855 0.20097,-1.19335 0.0663,-0.83083 0.11896,-2.51181 0.14083,-4.49219 0.005,-0.42969 0.0128,-1.00098 0.018,-1.26953 0.009,-0.4648 0.0108,-0.48828 0.0389,-0.48828 0.0288,0 0.0294,0.0829 0.0255,3.69809 l -0.004,3.69809 -0.23047,0.0734 c -0.12676,0.0404 -0.23047,0.0716 -0.23047,0.0695 z"
   id="path1751"
   inkscape:connector-curvature="0"
   transform="matrix(0.75000002,0,0,-0.75000002,0,841.89002)" /><path
   style="fill:#000000;fill-opacity:1;stroke:#000000;stroke-width:0.015625;stroke-opacity:1"
   d="m 519.12319,454.42369 c -0.0451,-0.009 -0.082,-0.0202 -0.082,-0.0256 0,-0.0107 1.67515,-0.55022 1.68325,-0.54212 0.003,0.003 -0.0241,0.0655 -0.0596,0.13948 -0.0803,0.16743 -0.11161,0.18933 -0.48469,0.33939 l -0.27028,0.10872 -0.35232,-0.002 c -0.19378,-10e-4 -0.38924,-0.009 -0.43436,-0.0178 z"
   id="path1753"
   inkscape:connector-curvature="0"
   transform="matrix(0.75000002,0,0,-0.75000002,0,841.89002)" /><path
   style="fill:#000000;fill-opacity:1;stroke:#000000;stroke-width:0.015625;stroke-opacity:1"
   d="m 518.07241,453.56889 v -0.40927 l 0.1211,0.1004 c 0.0903,0.0749 0.57,0.46874 0.59312,0.48699 0.002,0.001 -0.14937,0.0508 -0.33594,0.10973 -0.18657,0.0589 -0.348,0.11035 -0.35875,0.11428 -0.0153,0.006 -0.0195,-0.0813 -0.0195,-0.40213 z"
   id="path1755"
   inkscape:connector-curvature="0"
   transform="matrix(0.75000002,0,0,-0.75000002,0,841.89002)" /><path
   style="fill:#000000;fill-opacity:1;stroke:#000000;stroke-width:0.015625;stroke-opacity:1"
   d="m 518.24062,452.41493 -0.16772,-0.13542 0.003,-2.26563 c 0.002,-1.24609 0.005,-2.1707 0.007,-2.05469 0.0489,2.74419 0.13705,4.03248 0.30893,4.51416 0.0135,0.0379 0.0227,0.0707 0.0205,0.0729 -0.002,0.002 -0.0796,-0.0569 -0.1718,-0.13134 z"
   id="path1757"
   inkscape:connector-curvature="0"
   transform="matrix(0.75000002,0,0,-0.75000002,0,841.89002)" /><path
   style="fill:#000000;fill-opacity:1;stroke:#000000;stroke-width:0.015625;stroke-opacity:1"
   d="m 519.4132,453.37668 c -0.0747,-0.0616 -0.13299,-0.11486 -0.12958,-0.11827 0.003,-0.003 0.0504,0.0114 0.10453,0.033 0.0868,0.0346 0.23723,0.0796 0.37958,0.11345 0.0443,0.0105 0.041,0.0132 -0.0616,0.0484 -0.0597,0.0205 -0.11945,0.0368 -0.13281,0.0364 -0.0134,-4.7e-4 -0.0854,-0.0513 -0.16008,-0.11292 z"
   id="path1759"
   inkscape:connector-curvature="0"
   transform="matrix(0.75000002,0,0,-0.75000002,0,841.89002)" /><path
   style="fill:#000000;fill-opacity:1;stroke:#000000;stroke-width:0.02209709;stroke-opacity:1"
   d="m 520.72988,398.84349 -0.0826,-0.0219 0.0112,-4.15765 c 0.006,-2.2867 0.0172,-5.4727 0.0245,-7.07998 l 0.0133,-2.92234 h 0.0746 0.0746 v 7.10421 c 0,3.90732 -0.007,7.10319 -0.0166,7.10193 -0.009,-10e-4 -0.0537,-0.0122 -0.0992,-0.0242 z"
   id="path1761"
   inkscape:connector-curvature="0"
   transform="matrix(0.75000002,0,0,-0.75000002,0,841.89002)" /><path
   style="fill:#000000;fill-opacity:1;stroke:#000000;stroke-width:0.02209709;stroke-opacity:1"
   d="m 520.69831,380.41341 c 0.008,-2.32434 0.0147,-5.1036 0.0147,-6.17613 l 10e-6,-1.95007 h 0.0663 0.0663 v 6.17613 6.17614 h -0.081 -0.081 z"
   id="path1763"
   inkscape:connector-curvature="0"
   transform="matrix(0.75000002,0,0,-0.75000002,0,841.89002)" /><path
   style="fill:#000000;fill-opacity:1;stroke:#000000;stroke-width:0.03125;stroke-opacity:1"
   d="m 520.73751,364.68857 c 0.0352,-13.31954 0.0591,-18.39844 0.0868,-18.39844 0.015,0 0.0269,5.74448 0.0269,12.98438 v 12.98437 h -0.0668 -0.0669 z"
   id="path1765"
   inkscape:connector-curvature="0"
   transform="matrix(0.75000002,0,0,-0.75000002,0,841.89002)" /><path
   style="fill:#000000;fill-opacity:1;stroke:#000000;stroke-width:0.03125;stroke-opacity:1"
   d="m 520.80753,337.67546 c 0.0115,-4.75802 0.0261,-8.65681 0.0323,-8.66397 0.006,-0.007 0.0113,3.87677 0.0113,8.63096 0,5.92369 -0.0102,8.65028 -0.0323,8.66398 -0.0223,0.0138 -0.0258,-2.67156 -0.0113,-8.63097 z"
   id="path1767"
   inkscape:connector-curvature="0"
   transform="matrix(0.75000002,0,0,-0.75000002,0,841.89002)" /><path
   style="fill:#000000;fill-opacity:1;stroke:#000000;stroke-width:0.03125;stroke-opacity:1"
   d="m 518.07898,339.52451 -0.006,-7.90625 0.0968,-0.0766 0.0968,-0.0766 -0.0214,1.20162 c -0.0593,3.33047 -0.11127,8.00107 -0.15445,13.8735 -0.004,0.48984 -0.009,-2.66719 -0.0121,-7.01562 z"
   id="path1769"
   inkscape:connector-curvature="0"
   transform="matrix(0.75000002,0,0,-0.75000002,0,841.89002)" /><path
   style="fill:#000000;fill-opacity:1;stroke:#000000;stroke-width:0.03125;stroke-opacity:1"
   d="m 518.35711,326.78021 -0.006,-1.15054 0.0703,0.0216 c 0.0387,0.0119 0.0742,0.0249 0.0789,0.029 0.005,0.004 -0.005,0.13237 -0.0221,0.28518 -0.0259,0.23357 -0.0593,0.79274 -0.10633,1.77785 -0.005,0.10312 -0.0116,-0.33025 -0.0149,-0.96305 z"
   id="path1771"
   inkscape:connector-curvature="0"
   transform="matrix(0.75000002,0,0,-0.75000002,0,841.89002)" /><path
   style="fill:#000000;fill-opacity:1;stroke:#000000;stroke-width:0.03125;stroke-opacity:1"
   d="m 521.5387,326.49326 c 0,-0.19766 0.006,-0.35938 0.0129,-0.35938 0.007,0 0.0783,0.0917 0.15835,0.20385 l 0.14546,0.20386 -0.0672,0.10867 c -0.0643,0.10401 -0.17375,0.20237 -0.22524,0.20237 -0.0134,0 -0.0243,-0.16172 -0.0243,-0.35937 z"
   id="path1773"
   inkscape:connector-curvature="0"
   transform="matrix(0.75000002,0,0,-0.75000002,0,841.89002)" /><path
   style="fill:#000000;fill-opacity:1;stroke:#000000;stroke-width:0.03125;stroke-opacity:1"
   d="m 523.22413,328.56602 c -0.35505,-0.44561 -0.77378,-0.89751 -0.88582,-0.95599 -0.0567,-0.0296 -0.0551,-0.0362 0.0312,-0.1284 l 0.091,-0.0972 0.57299,0.79914 c 0.31514,0.43953 0.56667,0.80545 0.55895,0.81317 -0.008,0.008 -0.17348,-0.1861 -0.36838,-0.43071 z"
   id="path1775"
   inkscape:connector-curvature="0"
   transform="matrix(0.75000002,0,0,-0.75000002,0,841.89002)" /></g></svg>